<?xml version="1.0" standalone="no"?>
<!DOCTYPE svg PUBLIC "-//W3C//DTD SVG 20010904//EN"
 "http://www.w3.org/TR/2001/REC-SVG-20010904/DTD/svg10.dtd">
<svg version="1.0" xmlns="http://www.w3.org/2000/svg"
 width="208.000000pt" height="300.000000pt" viewBox="0 0 208.000000 300.000000"
 preserveAspectRatio="xMidYMid meet">

<g transform="translate(0.000000,300.000000) scale(0.100000,-0.100000)"
fill="#000000" stroke="none">
<path d="M1769 2813 c-13 -16 -12 -17 4 -4 16 13 21 21 13 21 -2 0 -10 -8 -17
-17z"/>
<path d="M1701 2726 c-9 -11 -9 -16 1 -22 7 -4 10 -4 6 1 -4 4 -3 14 3 22 6 7
9 13 6 13 -2 0 -10 -6 -16 -14z"/>
<path d="M1669 2688 c0 -2 -2 -11 -4 -21 -3 -15 -1 -16 11 -6 7 6 11 15 8 20
-5 9 -13 12 -15 7z"/>
<path d="M1639 2648 c0 -2 -2 -11 -4 -21 -3 -15 -1 -16 11 -6 7 6 11 15 8 20
-5 9 -13 12 -15 7z"/>
<path d="M1609 2608 c0 -2 -2 -11 -4 -21 -3 -15 -1 -16 11 -6 7 6 11 15 8 20
-5 9 -13 12 -15 7z"/>
<path d="M1564 2549 c-8 -14 14 -19 25 -6 8 10 7 14 -5 14 -8 0 -17 -4 -20 -8z"/>
<path d="M1533 2523 c-7 -3 -13 -11 -13 -19 0 -17 -17 -19 -23 -1 -4 9 -6 8
-6 -2 -1 -8 -9 -20 -18 -28 -16 -13 -16 -13 5 -3 15 7 28 7 41 1 14 -8 22 -6
35 8 9 9 16 22 16 28 0 13 -20 22 -37 16z"/>
<path d="M794 2497 c-23 -7 -48 -18 -57 -25 -10 -9 -17 -10 -22 -2 -9 15 -25
2 -25 -21 0 -10 -6 -19 -13 -19 -7 0 -28 -13 -45 -28 -18 -16 -50 -34 -72 -41
-29 -8 -44 -20 -51 -38 -11 -31 5 -56 32 -48 9 3 20 1 24 -5 3 -5 1 -10 -4
-10 -6 0 -11 -7 -11 -15 0 -18 23 -20 48 -4 25 16 111 3 119 -17 3 -9 -5 -27
-19 -42 -31 -33 -48 -65 -48 -89 0 -10 -14 -26 -30 -35 -17 -10 -38 -31 -48
-48 -9 -16 -24 -30 -33 -30 -8 0 -38 21 -65 48 l-49 47 -110 0 c-67 0 -125 -5
-148 -14 -37 -12 -38 -14 -21 -32 20 -22 66 -25 83 -6 15 19 121 15 151 -6 13
-9 45 -47 70 -84 45 -65 48 -68 98 -76 29 -5 52 -13 52 -18 0 -6 -17 -31 -38
-57 -33 -41 -72 -110 -72 -129 0 -9 61 6 77 18 7 6 13 23 14 38 0 34 50 75 79
66 12 -4 26 -16 31 -28 12 -27 28 -53 54 -92 12 -17 26 -42 33 -57 6 -15 29
-39 52 -54 41 -27 48 -38 30 -49 -21 -13 -9 -55 29 -103 38 -47 56 -110 38
-128 -11 -12 -8 -72 4 -80 7 -4 9 -25 7 -55 l-5 -49 66 -1 c111 -2 255 -9 267
-13 12 -5 84 50 84 64 0 5 19 37 43 72 23 35 42 69 43 76 1 6 2 19 3 27 2 20
90 75 122 75 21 0 29 9 49 58 17 39 24 72 22 104 -2 39 1 52 20 71 13 13 29
34 36 47 7 14 20 38 29 54 20 38 12 50 -66 98 -48 29 -74 38 -107 38 -24 0
-44 4 -44 8 0 4 -13 15 -29 25 -27 16 -30 16 -55 -4 -15 -12 -30 -18 -33 -15
-4 3 2 12 12 19 16 13 17 14 1 20 -9 4 -28 0 -42 -9 -31 -21 -31 -4 0 24 24
20 24 22 10 51 -8 17 -30 42 -47 56 l-32 25 33 26 c24 19 32 33 32 59 0 30 3
33 44 44 45 11 52 18 105 114 15 27 21 55 21 103 0 62 -1 65 -22 62 -21 -3
-23 -8 -20 -57 2 -44 -1 -59 -22 -86 -14 -17 -39 -38 -56 -45 -28 -11 -36 -11
-61 4 -18 11 -37 15 -50 11 -20 -7 -21 -5 -14 21 16 61 1 94 -45 94 -19 0 -30
-7 -40 -27 -15 -33 -19 -73 -7 -73 15 0 2 -53 -15 -61 -10 -5 -26 -13 -35 -17
-10 -5 -24 -23 -32 -40 -18 -40 -49 -42 -87 -7 -30 28 -21 34 14 9 27 -19 41
-12 22 11 -7 8 -10 24 -7 34 3 14 -3 25 -21 37 -22 14 -23 18 -9 26 20 11 22
28 4 28 -8 0 -24 9 -37 20 -12 10 -35 25 -51 32 -16 7 -29 16 -29 20 0 3 -10
4 -21 1 -19 -5 -20 -4 -10 15 16 29 14 32 -15 32 -14 0 -23 4 -19 10 3 6 -4
10 -17 10 -23 1 -23 1 5 25 31 28 30 28 -29 12z m275 -386 c8 -5 11 -16 8 -25
-9 -24 -24 -19 -29 9 -6 27 -1 30 21 16z"/>
<path d="M1435 2439 c-4 -6 -5 -12 -2 -15 2 -3 7 2 10 11 7 17 1 20 -8 4z"/>
<path d="M1447 2383 c-4 -3 -7 -11 -7 -17 0 -6 5 -5 12 2 6 6 9 14 7 17 -3 3
-9 2 -12 -2z"/>
<path d="M643 1115 c-29 -8 -70 -25 -90 -39 -44 -27 -173 -159 -173 -175 0 -6
30 20 68 58 55 56 77 72 121 85 67 20 82 20 126 2 76 -32 88 -134 29 -246 -35
-67 -235 -302 -266 -313 -7 -2 -9 -8 -4 -13 11 -12 195 180 275 287 107 141
134 222 103 301 -23 56 -100 78 -189 53z"/>
<path d="M1679 907 c-61 -17 -131 -59 -165 -99 -53 -63 -84 -170 -69 -238 7
-31 7 -31 27 -13 20 18 21 18 16 -47 -5 -58 -3 -69 19 -98 14 -18 23 -36 20
-39 -12 -11 -156 -44 -232 -53 -106 -13 -270 2 -460 42 -229 47 -293 57 -378
57 -74 1 -80 0 -103 -28 -13 -16 -56 -51 -95 -77 -69 -47 -74 -49 -142 -49
-65 0 -72 2 -83 24 -12 23 -12 23 -23 3 -15 -28 -14 -38 5 -56 48 -49 209 16
340 136 l42 39 48 -17 c27 -9 95 -36 151 -60 126 -53 295 -107 433 -136 87
-18 138 -22 295 -22 210 -1 281 12 446 75 78 30 237 127 270 165 13 15 18 51
22 164 4 87 3 139 -2 131 -7 -11 -13 -7 -24 20 -30 69 -74 116 -139 148 -74
36 -153 46 -219 28z m178 -68 c58 -28 110 -92 129 -157 l16 -53 -47 -54 c-51
-60 -65 -67 -65 -31 0 13 -3 37 -6 53 l-6 30 -77 -76 c-42 -42 -106 -93 -141
-113 -60 -35 -65 -37 -82 -21 -119 107 -89 330 54 412 67 39 157 43 225 10z
m-189 -486 c0 -12 -4 -20 -9 -18 -4 3 -10 1 -14 -5 -4 -6 -11 -5 -19 2 -17 16
-1 44 24 44 12 0 18 -8 18 -23z m-848 -24 c0 -5 -7 -9 -15 -9 -15 0 -20 12 -9
23 8 8 24 -1 24 -14z m716 -17 c-1 -24 -29 -32 -42 -14 -8 11 -8 19 0 27 15
16 44 7 42 -13z m-627 -11 c-3 -6 -10 -7 -18 -2 -7 5 -10 14 -6 21 9 14 29 -2
24 -19z m114 3 c3 -3 3 -12 0 -20 -4 -11 -9 -12 -19 -3 -8 6 -11 15 -8 20 6
10 18 12 27 3z m372 -2 c17 -12 14 -43 -4 -40 -21 4 -31 18 -24 35 6 15 13 16
28 5z m-251 -10 c6 -10 -5 -26 -21 -29 -7 -2 -13 3 -13 10 0 24 23 36 34 19z
m130 -17 c-3 -7 -12 -16 -19 -19 -17 -6 -30 25 -14 35 17 10 39 0 33 -16z"/>
<path d="M1165 880 c-9 -14 2 -29 52 -74 67 -59 87 -106 88 -201 0 -68 -4 -89
-27 -133 -29 -56 -28 -58 20 -41 25 9 35 21 53 67 46 125 5 277 -96 354 -50
38 -78 47 -90 28z"/>
<path d="M852 832 c-62 -57 -94 -135 -93 -226 0 -74 19 -142 44 -158 7 -4 24
-8 38 -8 l26 0 -25 50 c-49 99 -28 221 52 301 27 28 32 38 25 57 -11 30 -19
28 -67 -16z"/>
<path d="M286 469 c-68 -11 -184 -70 -226 -115 l-35 -37 48 32 c71 48 151 81
262 106 90 21 95 24 50 23 -27 0 -72 -4 -99 -9z"/>
<path d="M15 80 c0 -64 2 -70 20 -70 18 0 20 5 17 36 -4 33 -2 35 19 32 28 -3
39 -45 17 -60 -9 -7 -8 -8 7 -6 24 4 33 46 13 60 -10 7 -10 11 0 15 19 7 14
41 -7 53 -11 5 -35 10 -53 10 l-33 0 0 -70z m80 35 c0 -13 -8 -21 -22 -23 -19
-3 -23 1 -23 23 0 22 4 26 23 23 14 -2 22 -10 22 -23z"/>
<path d="M178 128 c5 -13 8 -44 7 -70 0 -33 4 -48 12 -48 9 0 13 17 13 54 0
30 3 61 6 70 5 12 0 16 -20 16 -22 0 -24 -3 -18 -22z"/>
<path d="M306 129 c-40 -31 -37 -83 7 -109 17 -11 42 -20 55 -20 27 0 62 17
62 30 0 5 -13 1 -30 -8 -27 -15 -32 -16 -57 -2 -21 12 -29 24 -31 52 -5 60 45
88 96 52 19 -13 22 -13 22 -1 0 33 -85 37 -124 6z"/>
<path d="M488 135 c4 -9 5 -40 2 -70 -6 -51 -4 -55 14 -55 19 0 21 6 21 70 0
66 -1 70 -23 70 -18 0 -21 -4 -14 -15z"/>
<path d="M560 140 c19 -13 30 -13 30 0 0 6 -10 10 -22 10 -19 0 -20 -2 -8 -10z"/>
<path d="M768 138 c14 -14 16 -88 3 -88 -5 0 -27 20 -50 45 -57 62 -66 59 -66
-20 0 -37 4 -65 10 -65 6 0 9 22 7 52 l-4 53 56 -54 c30 -30 57 -53 60 -50 2
2 6 34 8 72 4 62 2 67 -16 67 -16 0 -17 -3 -8 -12z"/>
<path d="M850 133 c0 -13 3 -13 15 -3 25 21 37 -2 33 -64 -3 -51 -1 -56 17
-56 18 0 20 6 17 65 -3 54 -1 65 12 65 9 0 16 -4 16 -10 0 -5 5 -10 10 -10 6
0 10 6 10 14 0 11 -15 14 -65 14 -51 0 -65 -3 -65 -15z"/>
<path d="M1045 80 c0 -56 3 -70 15 -70 12 0 16 16 18 70 2 61 0 70 -15 70 -16
0 -18 -10 -18 -70z"/>
<path d="M1126 136 c21 -15 30 -14 19 3 -3 6 -14 11 -23 11 -13 0 -13 -2 4
-14z"/>
<path d="M1319 136 c7 -8 11 -32 9 -53 l-3 -38 -46 48 c-25 26 -51 47 -57 47
-6 0 -12 -28 -14 -65 -3 -58 -1 -65 16 -65 14 0 16 3 7 14 -9 10 -12 86 -4 86
1 0 24 -24 52 -52 27 -29 52 -51 54 -48 3 3 7 35 9 73 4 61 2 67 -15 67 -16 0
-17 -3 -8 -14z"/>
<path d="M1449 80 c-25 -48 -32 -70 -23 -70 8 0 14 8 14 19 0 10 7 24 15 31 8
7 15 21 15 31 0 11 5 19 11 19 5 0 9 -8 8 -17 -2 -26 23 -83 37 -83 9 0 5 18
-10 57 -13 32 -25 63 -27 70 -2 7 -20 -19 -40 -57z"/>
<path d="M1615 78 c0 -58 3 -68 17 -68 14 0 16 6 11 31 -5 27 -3 31 13 27 10
-2 25 -16 32 -31 7 -15 21 -27 30 -26 10 0 12 3 5 6 -7 2 -13 12 -13 22 0 9
-5 22 -12 29 -8 8 -8 12 -1 12 17 0 25 31 12 46 -6 8 -18 14 -26 14 -13 0 -13
-3 -3 -15 15 -18 6 -45 -15 -45 -20 0 -31 28 -18 49 8 13 6 16 -11 16 -19 0
-21 -6 -21 -67z"/>
<path d="M1785 80 c0 -56 3 -70 15 -70 12 0 15 14 15 70 0 56 -3 70 -15 70
-12 0 -15 -14 -15 -70z"/>
<path d="M1923 138 c-41 -20 -47 -77 -12 -113 14 -14 33 -20 64 -20 48 0 77
20 90 63 5 17 -1 29 -24 52 -16 17 -37 30 -47 30 -13 0 -11 -5 10 -21 57 -45
17 -134 -51 -112 -51 17 -47 112 5 126 13 4 13 5 2 5 -8 0 -25 -4 -37 -10z"/>
<path d="M541 86 c-9 -10 -8 -15 4 -20 10 -4 15 1 15 14 0 24 -4 25 -19 6z"/>
<path d="M1100 90 c-13 -9 -13 -11 0 -20 15 -10 25 0 18 20 -2 6 -8 6 -18 0z"/>
<path d="M566 25 c-19 -15 -19 -15 2 -15 13 0 22 6 22 15 0 18 0 18 -24 0z"/>
<path d="M1120 20 c-13 -8 -12 -10 3 -10 9 0 17 5 17 10 0 12 -1 12 -20 0z"/>
</g>
</svg>
