<svg width="28" height="28" viewBox="0 0 28 28" fill="none" xmlns="http://www.w3.org/2000/svg">
<path d="M5.9342 5.93424V22.0173C5.9342 22.6526 6.44771 23.1661 7.08299 23.1661H10.5294V20.8685H8.23178V7.08303H10.5294V4.78545H7.08299C6.44771 4.78545 5.9342 5.29896 5.9342 5.93424ZM22.2953 4.81991L13.1049 2.52234C12.7638 2.43618 12.3996 2.51315 12.1204 2.73142C11.8413 2.94969 11.6781 3.28283 11.6781 3.63666V24.3149C11.6781 24.6687 11.8413 25.003 12.1204 25.2201C12.3249 25.3798 12.5731 25.4636 12.8269 25.4636C12.92 25.4636 13.013 25.4522 13.1049 25.4292L22.2953 23.1316C22.8076 23.0029 23.166 22.5446 23.166 22.0173V5.93424C23.166 5.40694 22.8076 4.94858 22.2953 4.81991ZM17.4221 14.1917C17.4221 14.719 17.0625 15.1774 16.5513 15.3061C15.8264 15.4876 15.1245 14.9396 15.1245 14.1917V13.7586C15.1245 13.0119 15.8264 12.4628 16.5513 12.6443C17.0637 12.773 17.4221 13.2325 17.4221 13.7598V14.1917Z" fill="black"/>
</svg>
