<svg width="28" height="28" viewBox="0 0 28 28" fill="none" xmlns="http://www.w3.org/2000/svg">
<path d="M5.93424 24.3149H22.0173C23.2844 24.3149 24.3149 23.2844 24.3149 22.0173V9.3806C24.3149 9.07617 24.1942 8.78323 23.9783 8.56841L19.3831 3.97325C19.1683 3.75728 18.8765 3.63666 18.5709 3.63666H5.93424C4.66712 3.63666 3.63666 4.66712 3.63666 5.93424V22.0173C3.63666 23.2844 4.66712 24.3149 5.93424 24.3149ZM17.4221 22.0173H10.5294V16.2733H17.4221V22.0173ZM15.1245 8.23181H12.827V5.93424H15.1245V8.23181ZM5.93424 5.93424H8.23181V10.5294H10.5294H12.827H15.1245H16.2733H17.4221V5.93424H18.0953L22.0173 9.8562L22.0184 22.0173H19.7197V16.2733C19.7197 15.0062 18.6892 13.9758 17.4221 13.9758H10.5294C9.26228 13.9758 8.23181 15.0062 8.23181 16.2733V22.0173H5.93424V5.93424Z" fill="#00518A"/>
</svg>
